<svg xmlns="http://www.w3.org/2000/svg" xml:space="preserve" fill-rule="evenodd" stroke-linejoin="round" stroke-miterlimit="2" clip-rule="evenodd" viewBox="0 0 581 150">
  <path fill-rule="nonzero" d="M186.474 28.875h8.948l13.251 38.997 13.156-38.997h8.855V75h-5.935V47.777c0-.942.021-2.501.063-4.678.042-2.177.063-4.511.063-7.002L211.719 75h-6.186l-13.25-38.903v1.413c0 1.13.026 2.852.078 5.165.052 2.313.079 4.014.079 5.102V75h-5.966V28.875ZM233.403 28.875h7.284l13.251 22.168 13.25-22.168h7.316l-17.427 27.537V75h-6.248V56.412l-17.426-27.537ZM189.153 88.033c.048-1.342.281-2.325.701-2.948.755-1.103 2.211-1.654 4.369-1.654.203 0 .413.006.629.018.216.012.461.03.737.054v2.948a26.317 26.317 0 0 0-.728-.045c-.15-.006-.291-.009-.423-.009-.982 0-1.57.255-1.762.764-.191.51-.287 1.807-.287 3.893h3.2v2.553h-3.236v16.612h-3.2V93.607h-2.679v-2.553h2.679v-3.021ZM196.822 90.964h3.075v3.326c.251-.647.869-1.435 1.851-2.364.983-.929 2.116-1.394 3.398-1.394.06 0 .162.006.306.018.144.012.39.036.737.072v3.416a4.823 4.823 0 0 0-.53-.072 7.223 7.223 0 0 0-.531-.018c-1.63 0-2.882.525-3.757 1.573a5.493 5.493 0 0 0-1.313 3.623v11.075h-3.236V90.964ZM215.171 90.532c1.367 0 2.691.321 3.974.962 1.282.641 2.259 1.471 2.93 2.49.647.971 1.079 2.104 1.295 3.398.191.887.287 2.301.287 4.243h-14.113c.06 1.954.521 3.521 1.384 4.702.863 1.18 2.2 1.77 4.01 1.77 1.69 0 3.038-.557 4.045-1.672a5.628 5.628 0 0 0 1.222-2.247h3.183c-.084.707-.363 1.495-.836 2.364-.474.869-1.004 1.579-1.592 2.131-.982.959-2.199 1.606-3.649 1.941-.779.192-1.66.288-2.643.288-2.397 0-4.429-.872-6.095-2.616-1.666-1.744-2.499-4.186-2.499-7.326 0-3.092.839-5.603 2.517-7.533 1.678-1.93 3.872-2.895 6.58-2.895Zm5.16 8.522c-.132-1.402-.437-2.523-.917-3.362-.887-1.558-2.367-2.337-4.44-2.337-1.487 0-2.733.536-3.74 1.609-1.007 1.073-1.54 2.436-1.6 4.09h10.697ZM233.808 90.532c1.366 0 2.691.321 3.973.962 1.283.641 2.26 1.471 2.931 2.49.647.971 1.079 2.104 1.294 3.398.192.887.288 2.301.288 4.243h-14.113c.06 1.954.521 3.521 1.384 4.702.863 1.18 2.199 1.77 4.009 1.77 1.69 0 3.039-.557 4.045-1.672a5.63 5.63 0 0 0 1.223-2.247h3.182c-.084.707-.362 1.495-.836 2.364-.473.869-1.004 1.579-1.591 2.131-.983.959-2.199 1.606-3.65 1.941-.779.192-1.66.288-2.642.288-2.398 0-4.429-.872-6.095-2.616-1.666-1.744-2.499-4.186-2.499-7.326 0-3.092.839-5.603 2.517-7.533 1.678-1.93 3.871-2.895 6.58-2.895Zm5.16 8.522c-.132-1.402-.438-2.523-.917-3.362-.887-1.558-2.367-2.337-4.441-2.337-1.486 0-2.733.536-3.739 1.609-1.007 1.073-1.54 2.436-1.6 4.09h10.697ZM244.516 83.808h3.236v26.411h-3.236zM258.406 108.133c2.146 0 3.617-.812 4.414-2.436.797-1.624 1.196-3.431 1.196-5.42 0-1.798-.288-3.26-.863-4.387-.911-1.774-2.481-2.661-4.711-2.661-1.977 0-3.416.755-4.315 2.265-.898 1.511-1.348 3.332-1.348 5.466 0 2.049.45 3.757 1.348 5.124.899 1.366 2.326 2.049 4.279 2.049Zm.126-17.727c2.481 0 4.579.827 6.293 2.482 1.714 1.654 2.571 4.087 2.571 7.299 0 3.104-.755 5.669-2.266 7.695-1.51 2.025-3.853 3.038-7.029 3.038-2.649 0-4.753-.896-6.311-2.688-1.558-1.792-2.337-4.198-2.337-7.218 0-3.236.821-5.813 2.463-7.731 1.642-1.918 3.848-2.877 6.616-2.877ZM276.198 90.622c1.51 0 2.829.372 3.955 1.115.612.419 1.235 1.031 1.87 1.834v-2.427h2.985v17.511c0 2.445-.36 4.375-1.079 5.789-1.342 2.613-3.877 3.919-7.605 3.919-2.074 0-3.818-.464-5.232-1.393-1.414-.929-2.205-2.382-2.373-4.36h3.29c.156.863.468 1.528.935 1.996.731.719 1.882 1.078 3.452 1.078 2.481 0 4.105-.875 4.872-2.624.456-1.031.665-2.871.629-5.52-.647.983-1.426 1.714-2.337 2.194-.911.479-2.115.719-3.614.719-2.085 0-3.91-.74-5.474-2.221-1.564-1.48-2.346-3.928-2.346-7.344 0-3.224.788-5.741 2.364-7.551 1.576-1.81 3.479-2.715 5.708-2.715Zm5.825 9.888c0-2.385-.491-4.153-1.474-5.303-.983-1.151-2.235-1.726-3.758-1.726-2.277 0-3.835 1.067-4.674 3.2-.444 1.139-.665 2.631-.665 4.477 0 2.169.44 3.82 1.321 4.953.881 1.132 2.065 1.699 3.551 1.699 2.325 0 3.961-1.049 4.908-3.146.527-1.187.791-2.571.791-4.154ZM295.68 108.133c2.145 0 3.616-.812 4.414-2.436.797-1.624 1.195-3.431 1.195-5.42 0-1.798-.288-3.26-.863-4.387-.911-1.774-2.481-2.661-4.71-2.661-1.978 0-3.416.755-4.315 2.265-.899 1.511-1.349 3.332-1.349 5.466 0 2.049.45 3.757 1.349 5.124.899 1.366 2.325 2.049 4.279 2.049Zm.126-17.727c2.481 0 4.578.827 6.292 2.482 1.714 1.654 2.571 4.087 2.571 7.299 0 3.104-.755 5.669-2.265 7.695-1.51 2.025-3.854 3.038-7.03 3.038-2.649 0-4.752-.896-6.31-2.688-1.559-1.792-2.338-4.198-2.338-7.218 0-3.236.821-5.813 2.463-7.731 1.643-1.918 3.848-2.877 6.617-2.877ZM307.449 106.3h3.758v3.919h-3.758zM315.064 90.964h3.201v2.733c.767-.947 1.462-1.637 2.085-2.068 1.067-.731 2.277-1.097 3.632-1.097 1.534 0 2.768.378 3.703 1.133.528.431 1.007 1.067 1.439 1.906.719-1.031 1.564-1.795 2.535-2.293.97-.497 2.061-.746 3.272-.746 2.589 0 4.351.935 5.285 2.805.504 1.007.756 2.361.756 4.063v12.819h-3.362V96.843c0-1.283-.321-2.164-.962-2.643-.642-.479-1.424-.719-2.346-.719-1.271 0-2.365.425-3.282 1.276-.917.851-1.375 2.272-1.375 4.261v11.201h-3.29V97.652c0-1.307-.156-2.259-.468-2.859-.491-.899-1.408-1.348-2.75-1.348-1.223 0-2.334.473-3.335 1.42s-1.501 2.661-1.501 5.142v10.212h-3.237V90.964ZM351.913 90.532c1.367 0 2.691.321 3.974.962 1.282.641 2.259 1.471 2.93 2.49.647.971 1.079 2.104 1.295 3.398.191.887.287 2.301.287 4.243h-14.113c.06 1.954.521 3.521 1.384 4.702.863 1.18 2.2 1.77 4.01 1.77 1.69 0 3.038-.557 4.045-1.672a5.628 5.628 0 0 0 1.222-2.247h3.183c-.084.707-.363 1.495-.836 2.364-.474.869-1.004 1.579-1.591 2.131-.983.959-2.2 1.606-3.65 1.941-.779.192-1.66.288-2.643.288-2.397 0-4.429-.872-6.095-2.616-1.666-1.744-2.499-4.186-2.499-7.326 0-3.092.839-5.603 2.517-7.533 1.678-1.93 3.872-2.895 6.58-2.895Zm5.16 8.522c-.132-1.402-.437-2.523-.917-3.362-.887-1.558-2.367-2.337-4.44-2.337-1.487 0-2.733.536-3.74 1.609-1.007 1.073-1.54 2.436-1.6 4.09h10.697ZM309.168 70.259c-3.454 3.161-7.87 4.741-13.25 4.741-6.657 0-11.89-2.135-15.7-6.405-3.809-4.292-5.714-10.174-5.714-17.647 0-8.08 2.166-14.307 6.499-18.682 3.768-3.81 8.562-5.715 14.381-5.715 7.787 0 13.481 2.554 17.081 7.662 1.989 2.868 3.056 5.746 3.203 8.634h-9.671c-.628-2.218-1.434-3.893-2.418-5.023-1.758-2.01-4.364-3.015-7.818-3.015-3.517 0-6.29 1.419-8.321 4.255-2.03 2.836-3.045 6.85-3.045 12.041 0 5.192 1.072 9.08 3.218 11.665 2.146 2.585 4.872 3.878 8.179 3.878 3.391 0 5.977-1.11 7.756-3.328.984-1.194 1.8-2.983 2.449-5.37h9.577c-.838 5.045-2.973 9.148-6.406 12.309ZM340.209 75c-6.614 0-11.67-1.8-15.165-5.401-4.689-4.416-7.034-10.78-7.034-19.09 0-8.478 2.345-14.841 7.034-19.091 3.495-3.6 8.551-5.4 15.165-5.4 6.615 0 11.67 1.8 15.166 5.4 4.668 4.25 7.002 10.613 7.002 19.091 0 8.31-2.334 14.674-7.002 19.09C351.879 73.2 346.824 75 340.209 75Zm9.137-12.434c2.24-2.826 3.36-6.845 3.36-12.057 0-5.191-1.125-9.205-3.375-12.042-2.251-2.836-5.291-4.254-9.122-4.254-3.83 0-6.887 1.413-9.168 4.239-2.282 2.826-3.423 6.845-3.423 12.057 0 5.212 1.141 9.231 3.423 12.057 2.281 2.826 5.338 4.239 9.168 4.239 3.831 0 6.877-1.413 9.137-4.239ZM375.395 73.713h-9.012V27.431h14.067l8.415 36.391 8.352-36.391h13.91v46.282h-9.012V42.408c0-.9.011-2.161.032-3.784.021-1.622.031-2.873.031-3.752l-8.76 38.841h-9.388l-8.698-38.841c0 .879.011 2.13.032 3.752a310.1 310.1 0 0 1 .031 3.784v31.305ZM436.548 57.071h-9.828v16.642h-9.608V27.431h20.158c4.647 0 8.352 1.193 11.115 3.579s4.145 6.081 4.145 11.084c0 5.463-1.382 9.325-4.145 11.586-2.763 2.261-6.709 3.391-11.837 3.391Zm4.521-9.639c1.256-1.11 1.884-2.868 1.884-5.275 0-2.408-.633-4.124-1.9-5.15-1.266-1.025-3.04-1.538-5.322-1.538h-9.011v13.627h9.011c2.282 0 4.061-.555 5.338-1.664ZM483.665 64.199h-17.05l-3.202 9.514h-10.111l16.516-46.282h10.927l16.39 46.282h-10.487l-2.983-9.514Zm-2.7-7.976-5.778-18.211-5.966 18.211h11.744ZM537.219 73.713h-9.671l-18.902-32.875v32.875h-9.012V27.431h10.142l18.431 32.309V27.431h9.012v46.282ZM580.38 27.431 564.9 56.318v17.395h-9.671V56.318l-16.013-28.887h11.398l9.608 20.158 9.2-20.158h10.958Z"/>
  <circle cx="75" cy="75" r="75"/>
  <ellipse cx="96.343" cy="75" fill="#262626" rx="53.657" ry="75"/>
  <ellipse cx="118.325" cy="75" fill="#4d4d4d" rx="31.675" ry="75"/>
  <ellipse cx="134.162" cy="75" fill="#737373" rx="15.838" ry="75"/>
</svg>
